ply
format ascii 1.0
comment VCGLIB generated
element vertex 84
property float x
property float y
property float z
property float nx
property float ny
property float nz
element face 36
property list uchar int vertex_indices
end_header
0 0.2262742 -0.2262742 0.941271 1.630329 -0.6753045 
0 0.32 -1.398764e-08 0.4706355 0.8151646 -0.3376523 
0.2771282 0.16 -1.398764e-08 0.941271 1.630329 -0.6753045 
0.1959592 0.1131371 -0.2262742 0.4706355 0.8151646 -0.3376523 
0 0.2262742 0.2262742 0.01060387 0.01836644 0.04434052 
-2.422732e-08 -4.196293e-08 0.32 0.01060387 0.01836644 0.04434052 
0.1959592 0.1131371 0.2262742 0.01060387 0.01836644 0.04434052 
0 -2.797529e-08 -0.32 0.01060387 0.01836644 -0.04434051 
0 0.2262742 -0.2262742 0.01060387 0.01836644 -0.04434051 
0.1959592 0.1131371 -0.2262742 0.01060387 0.01836644 -0.04434051 
0 0.32 -1.398764e-08 0.941271 1.630329 0.6753044 
0 0.2262742 0.2262742 0.4706355 0.8151645 0.3376522 
0.1959592 0.1131371 0.2262742 0.941271 1.630329 0.6753044 
0.2771282 0.16 -1.398764e-08 0.4706355 0.8151645 0.3376522 
0 -2.797529e-08 -0.32 0.02120774 0 -0.04434051 
0.1959592 0.1131371 -0.2262742 0.02120774 0 -0.04434051 
0.1959592 -0.1131371 -0.2262742 0.02120774 0 -0.04434051 
0.2771282 0.16 -1.398764e-08 1.882542 -1.027032e-07 0.6753044 
0.1959592 0.1131371 0.2262742 0.941271 -5.135161e-08 0.3376522 
0.1959592 -0.1131371 0.2262742 1.882542 -1.027032e-07 0.6753044 
0.2771281 -0.1600001 -1.398764e-08 0.941271 -5.135161e-08 0.3376522 
0.1959592 0.1131371 -0.2262742 1.882542 -1.134721e-07 -0.6753044 
0.2771282 0.16 -1.398764e-08 0.9412709 -5.673605e-08 -0.3376522 
0.2771281 -0.1600001 -1.398764e-08 1.882542 -1.134721e-07 -0.6753044 
0.1959592 -0.1131371 -0.2262742 0.9412709 -5.673605e-08 -0.3376522 
0.1959592 0.1131371 0.2262742 0.02120774 0 0.04434052 
-2.422732e-08 -4.196293e-08 0.32 0.02120774 0 0.04434052 
0.1959592 -0.1131371 0.2262742 0.02120774 0 0.04434052 
0.1959592 -0.1131371 0.2262742 0.01060387 -0.01836644 0.04434052 
-2.422732e-08 -4.196293e-08 0.32 0.01060387 -0.01836644 0.04434052 
-2.792675e-08 -0.2262742 0.2262742 0.01060387 -0.01836644 0.04434052 
0 -2.797529e-08 -0.32 0.01060387 -0.01836644 -0.04434052 
0.1959592 -0.1131371 -0.2262742 0.01060387 -0.01836644 -0.04434052 
-2.792675e-08 -0.2262742 -0.2262742 0.01060387 -0.01836644 -0.04434052 
0.2771281 -0.1600001 -1.398764e-08 0.9412708 -1.630329 0.6753043 
0.1959592 -0.1131371 0.2262742 0.4706354 -0.8151646 0.3376521 
-2.792675e-08 -0.2262742 0.2262742 0.9412708 -1.630329 0.6753043 
-6.517966e-08 -0.3200001 -1.398764e-08 0.4706354 -0.8151646 0.3376521 
0.1959592 -0.1131371 -0.2262742 0.9412708 -1.630329 -0.6753044 
0.2771281 -0.1600001 -1.398764e-08 0.4706354 -0.8151647 -0.3376522 
-6.517966e-08 -0.3200001 -1.398764e-08 0.9412708 -1.630329 -0.6753044 
-2.792675e-08 -0.2262742 -0.2262742 0.4706354 -0.8151647 -0.3376522 
-2.792675e-08 -0.2262742 -0.2262742 -0.9412712 -1.630329 -0.6753044 
-6.517966e-08 -0.3200001 -1.398764e-08 -0.4706356 -0.8151644 -0.3376522 
-0.2771282 -0.16 -1.398764e-08 -0.9412712 -1.630329 -0.6753044 
-0.1959592 -0.1131371 -0.2262742 -0.4706356 -0.8151644 -0.3376522 
-2.792675e-08 -0.2262742 0.2262742 -0.01060387 -0.01836644 0.04434051 
-2.422732e-08 -4.196293e-08 0.32 -0.01060387 -0.01836644 0.04434051 
-0.1959592 -0.1131371 0.2262742 -0.01060387 -0.01836644 0.04434051 
0 -2.797529e-08 -0.32 -0.01060387 -0.01836644 -0.04434051 
-2.792675e-08 -0.2262742 -0.2262742 -0.01060387 -0.01836644 -0.04434051 
-0.1959592 -0.1131371 -0.2262742 -0.01060387 -0.01836644 -0.04434051 
-6.517966e-08 -0.3200001 -1.398764e-08 -0.9412712 -1.630329 0.6753043 
-2.792675e-08 -0.2262742 0.2262742 -0.4706356 -0.8151644 0.3376521 
-0.1959592 -0.1131371 0.2262742 -0.9412712 -1.630329 0.6753043 
-0.2771282 -0.16 -1.398764e-08 -0.4706356 -0.8151644 0.3376521 
-0.1959592 -0.1131371 -0.2262742 -1.882542 4.377351e-07 -0.6753045 
-0.2771282 -0.16 -1.398764e-08 -0.9412709 2.188675e-07 -0.3376522 
-0.2771281 0.1600001 -1.398764e-08 -1.882542 4.377351e-07 -0.6753045 
-0.1959592 0.1131371 -0.2262742 -0.9412709 2.188675e-07 -0.3376522 
-0.1959592 -0.1131371 0.2262742 -0.02120774 4.189871e-09 0.04434051 
-2.422732e-08 -4.196293e-08 0.32 -0.02120774 4.189871e-09 0.04434051 
-0.1959592 0.1131371 0.2262742 -0.02120774 4.189871e-09 0.04434051 
0 -2.797529e-08 -0.32 -0.02120774 3.72529e-09 -0.04434051 
-0.1959592 -0.1131371 -0.2262742 -0.02120774 3.72529e-09 -0.04434051 
-0.1959592 0.1131371 -0.2262742 -0.02120774 3.72529e-09 -0.04434051 
-0.2771282 -0.16 -1.398764e-08 -1.882542 4.499497e-07 0.6753043 
-0.1959592 -0.1131371 0.2262742 -0.9412709 2.249748e-07 0.3376521 
-0.1959592 0.1131371 0.2262742 -1.882542 4.499497e-07 0.6753043 
-0.2771281 0.1600001 -1.398764e-08 -0.9412709 2.249748e-07 0.3376521 
-0.1959592 0.1131371 -0.2262742 -0.9412706 1.630329 -0.6753045 
-0.2771281 0.1600001 -1.398764e-08 -0.4706353 0.8151646 -0.3376523 
0 0.32 -1.398764e-08 -0.9412706 1.630329 -0.6753045 
0 0.2262742 -0.2262742 -0.4706353 0.8151646 -0.3376523 
-0.1959592 0.1131371 0.2262742 -0.01060386 0.01836644 0.04434051 
-2.422732e-08 -4.196293e-08 0.32 -0.01060386 0.01836644 0.04434051 
0 0.2262742 0.2262742 -0.01060386 0.01836644 0.04434051 
0 -2.797529e-08 -0.32 -0.01060386 0.01836644 -0.04434051 
-0.1959592 0.1131371 -0.2262742 -0.01060386 0.01836644 -0.04434051 
0 0.2262742 -0.2262742 -0.01060386 0.01836644 -0.04434051 
-0.2771281 0.1600001 -1.398764e-08 -0.9412706 1.630329 0.6753044 
-0.1959592 0.1131371 0.2262742 -0.4706353 0.8151646 0.3376522 
0 0.2262742 0.2262742 -0.9412706 1.630329 0.6753044 
0 0.32 -1.398764e-08 -0.4706353 0.8151646 0.3376522 
3 0 1 2 
3 0 2 3 
3 4 5 6 
3 7 8 9 
3 10 11 12 
3 10 12 13 
3 14 15 16 
3 17 18 19 
3 17 19 20 
3 21 22 23 
3 21 23 24 
3 25 26 27 
3 28 29 30 
3 31 32 33 
3 34 35 36 
3 34 36 37 
3 38 39 40 
3 38 40 41 
3 42 43 44 
3 42 44 45 
3 46 47 48 
3 49 50 51 
3 52 53 54 
3 52 54 55 
3 56 57 58 
3 56 58 59 
3 60 61 62 
3 63 64 65 
3 66 67 68 
3 66 68 69 
3 70 71 72 
3 70 72 73 
3 74 75 76 
3 77 78 79 
3 80 81 82 
3 80 82 83 
