ply
format ascii 1.0
comment VCGLIB generated
element vertex 287
property float x
property float y
property float z
property float nx
property float ny
property float nz
property uchar red
property uchar green
property uchar blue
property uchar alpha
element face 570
property list uchar int vertex_indices
end_header
-3.121851e-06 19.50902 -98.0785 -2.324581e-06 1.180034 -5.994277 250 234 6 255 
-1.416193e-07 38.26833 -92.38795 -7.003546e-07 2.320657 -5.664619 255 238 0 255 
29.99832 38.26833 -87.38212 1.839297 2.32066 -5.357695 10 67 255 255 
31.84605 19.50902 -92.76437 1.946335 1.180035 -5.669488 10 67 255 255 
-2.004264e-06 -98.07854 -19.50901 -2.402812e-07 -6.10374 -1.278243 255 255 255 255 
-5.357026e-06 -92.38795 -38.26833 2.980232e-07 -5.7187 -2.432462 255 238 0 255 
12.42572 -92.38795 -36.19485 0.7898191 -5.718699 -2.300666 10 67 255 255 
6.334575 -98.07854 -18.45196 0.4150448 -6.10374 -1.208985 255 255 255 255 
-3.121851e-06 -2.06632e-05 -99.99998 -1.952052e-06 -1.825392e-06 -6.105093 255 238 0 255 
32.46995 -1.978046e-05 -94.58173 1.982319 -1.847744e-06 -5.774303 10 67 255 255 
-2.004264e-06 98.07852 -19.50904 -3.837049e-07 6.10374 -1.278244 255 255 255 255 
-4.160861e-06 100 1.38815e-07 -1.369044e-07 6.221713 -1.296401e-06 255 255 255 255 
6.334575 98.07852 -18.45199 0.4150448 6.10374 -1.208986 255 255 255 255 
0 -100 2.503435e-05 -3.49246e-08 -6.221713 1.110137e-06 255 255 255 255 
-3.121851e-06 -19.50905 -98.07849 -2.69711e-06 -1.180033 -5.994277 255 238 0 255 
31.84605 -19.50905 -92.76436 1.946336 -1.180034 -5.669488 10 67 255 255 
-1.631735e-06 92.38795 -38.26836 -7.450581e-07 5.718699 -2.432465 255 238 0 255 
12.42571 92.38795 -36.19488 0.7898194 5.718699 -2.300667 150 150 150 255 
0 -38.26836 -92.38795 -1.2815e-06 -2.320658 -5.664618 250 234 6 255 
29.99832 -38.26835 -87.38211 1.839298 -2.320662 -5.357694 10 67 255 255 
-6.102084e-06 83.14695 -55.55703 -1.996756e-06 5.117083 -3.482362 255 238 0 255 
18.03934 83.14695 -52.54681 1.13072 5.117082 -3.293678 10 67 255 255 
-1.504278e-05 -55.55703 -83.14695 -1.639128e-06 -3.382595 -5.124775 255 238 0 255 
26.99778 -55.55703 -78.64182 1.664011 -3.382594 -4.847102 10 67 255 255 
-4.611968e-06 70.71066 -70.71067 -2.160668e-06 4.327109 -4.389886 255 238 0 255 
22.95972 70.71066 -66.87939 1.425393 4.327108 -4.152031 10 67 255 255 
-4.611968e-06 -70.71069 -70.71065 -1.609325e-06 -4.327109 -4.389887 213 202 60 255 
22.95972 -70.71069 -66.87936 1.425393 -4.32711 -4.15203 10 67 255 255 
-6.102084e-06 55.55701 -83.14696 -1.66893e-06 3.382593 -5.124777 255 238 0 255 
26.99777 55.55701 -78.64184 1.664012 3.382591 -4.847103 10 67 255 255 
-1.057243e-05 -83.14697 -55.55702 -2.831221e-07 -5.117082 -3.482361 255 238 0 255 
18.03934 -83.14697 -52.54677 1.130721 -5.117084 -3.293675 10 67 255 255 
43.4314 -70.71069 -55.80064 2.696324 -4.32711 -3.464236 10 67 255 255 
34.12383 -83.14697 -43.84228 2.13891 -5.117083 -2.748072 10 67 255 255 
51.06992 55.55701 -65.61464 3.147704 3.382592 -4.044169 10 67 255 255 
56.74585 38.26833 -72.90708 3.47928 2.320662 -4.470181 10 67 255 255 
23.50491 -92.38795 -30.19909 1.49405 -5.718699 -1.919555 10 67 255 255 
60.24108 19.50902 -77.39774 3.68176 1.180034 -4.730325 10 67 255 255 
11.9827 -98.07854 -15.39535 0.7851149 -6.10374 -1.008711 255 255 255 255 
61.42128 -1.722787e-05 -78.91405 3.749827 -1.460314e-06 -4.817777 10 67 255 255 
11.9827 98.07852 -15.39538 0.7851139 6.10374 -1.008714 255 255 255 255 
60.24108 -19.50904 -77.39774 3.68176 -1.180034 -4.730325 10 67 255 255 
23.50491 92.38795 -30.19911 1.49405 5.718699 -1.919556 70 102 209 255 
56.74586 -38.26835 -72.90707 3.479281 -2.320661 -4.47018 10 67 255 255 
34.12384 83.14695 -43.84231 2.13891 5.117082 -2.748073 10 67 255 255 
51.06993 -55.55703 -65.61462 3.147703 -3.382595 -4.044168 10 67 255 255 
43.4314 70.71067 -55.80066 2.696325 4.327108 -3.464238 10 67 255 255 
82.10806 -19.50904 -53.64387 5.018207 -1.180033 -3.278558 255 42 14 255 
77.34411 -38.26835 -50.53141 4.742229 -2.320661 -3.098252 255 42 14 255 
32.03698 92.38795 -20.93081 2.036376 5.718699 -1.330432 150 150 150 255 
46.51049 83.14696 -30.38682 2.915317 5.117083 -1.904671 150 150 150 255 
69.60786 -55.55703 -45.47707 4.290291 -3.382595 -2.802986 255 42 14 255 
59.1966 70.71067 -38.67508 3.675067 4.327108 -2.401041 242 54 30 255 
59.1966 -70.71069 -38.67506 3.675066 -4.32711 -2.40104 236 61 38 255 
69.60784 55.55702 -45.47708 4.290291 3.382593 -2.802988 255 42 14 255 
46.51048 -83.14697 -30.3868 2.915316 -5.117084 -1.90467 255 42 14 255 
77.34409 38.26833 -50.53142 4.742229 2.320662 -3.098253 255 42 14 255 
32.03699 -92.38795 -20.93078 2.036377 -5.718699 -1.330431 255 42 14 255 
82.10806 19.50903 -53.64388 5.018206 1.180033 -3.278557 255 42 14 255 
16.33232 -98.07853 -10.67041 1.070104 -6.103741 -0.6991297 255 255 255 255 
83.71664 -1.328205e-05 -54.69481 5.110981 -8.493662e-07 -3.33917 255 42 14 255 
16.33232 98.07852 -10.67044 1.070103 6.10374 -0.6991333 255 255 255 255 
53.85699 -83.14697 -13.63843 3.375803 -5.117083 -0.8548683 255 42 14 255 
37.09736 -92.38795 -9.394302 2.358031 -5.718699 -0.597133 214 84 67 255 
89.56091 38.26834 -22.6799 5.491283 2.32066 -1.390581 255 42 14 255 
95.07735 19.50903 -24.07686 5.810852 1.180034 -1.471507 233 63 40 255 
18.91207 -98.07853 -4.789161 1.23913 -6.103741 -0.3137897 249 253 249 255 
96.94003 -8.370605e-06 -24.54855 5.91828 -4.768372e-07 -1.498711 253 42 14 255 
18.91207 98.07852 -4.789193 1.23913 6.10374 -0.3137904 255 255 255 255 
95.07735 -19.50904 -24.07685 5.810853 -1.180033 -1.471507 255 42 14 255 
37.09735 92.38795 -9.394331 2.35803 5.7187 -0.5971357 0 203 7 255 
89.56091 -38.26834 -22.67989 5.491283 -2.32066 -1.39058 255 42 14 255 
53.857 83.14696 -13.63845 3.375803 5.117082 -0.854869 255 42 14 255 
80.60269 -55.55702 -20.41136 4.967959 -3.382594 -1.258057 255 42 14 255 
68.54694 70.71067 -17.35845 4.255557 4.327109 -1.077654 255 42 14 255 
68.54694 -70.71068 -17.35843 4.255558 -4.32711 -1.077653 255 42 14 255 
80.60268 55.55702 -20.41138 4.967959 3.382593 -1.258059 255 42 14 255 
38.13765 92.38795 3.160171 2.424155 5.718699 0.20087 0 203 7 255 
55.36727 83.14696 4.587855 3.470468 5.117083 0.2875705 0 203 7 255 
92.0724 -38.26834 7.629357 5.645272 -2.32066 0.4677821 0 203 7 255 
82.86298 -55.55702 6.866239 5.107273 -3.382593 0.4232015 0 203 7 255 
70.46916 70.71068 5.839235 4.374892 4.327109 0.3625135 0 203 7 255 
70.46916 -70.71068 5.839258 4.374893 -4.327109 0.3625149 0 203 7 255 
82.86297 55.55703 6.866219 5.107273 3.382592 0.4232009 2 202 9 255 
55.36727 -83.14697 4.587879 3.470467 -5.117083 0.2875717 0 203 7 255 
92.07239 38.26834 7.629333 5.645272 2.320661 0.4677805 0 203 7 255 
38.13765 -92.38795 3.1602 2.424155 -5.7187 0.2008729 0 203 7 255 
97.74354 19.50904 8.099257 5.9738 1.180034 0.4950036 0 203 7 255 
19.44241 -98.07853 1.611069 1.273879 -6.10374 0.1055567 224 247 225 255 
99.65844 -3.02575e-06 8.257936 6.084243 -1.192093e-07 0.5041555 0 203 7 255 
19.44241 98.07852 1.611037 1.273878 6.103741 0.1055525 255 255 255 255 
97.74354 -19.50903 8.099263 5.973801 -1.180032 0.4950038 0 203 7 255 
84.60641 38.26835 37.11181 5.187508 2.32066 2.275452 0 203 7 255 
89.81769 19.50904 39.39769 5.489397 1.180034 2.407873 0 203 7 255 
35.04514 -92.38795 15.37225 2.227585 -5.718699 0.9771097 0 203 7 255 
17.86586 -98.07853 7.836718 1.170582 -6.10374 0.513465 255 255 255 255 
91.57732 2.17331e-06 40.16954 5.590882 4.470348e-07 2.452389 0 203 7 255 
17.86586 98.07853 7.836686 1.170581 6.10374 0.5134615 255 255 255 255 
89.81769 -19.50903 39.3977 5.489398 -1.180032 2.407873 0 203 7 255 
35.04514 92.38795 15.37222 2.227586 5.718699 0.9771096 15 206 21 255 
84.60642 -38.26833 37.11184 5.187507 -2.320659 2.275452 0 203 7 255 
50.87764 83.14697 22.31699 3.189054 5.117083 1.398848 0 203 7 255 
76.14377 -55.55701 33.39977 4.693133 -3.382593 2.0586 0 203 7 255 
64.75494 70.71068 28.40415 4.020141 4.32711 1.763397 0 203 7 255 
64.75494 -70.71067 28.40417 4.020142 -4.327109 1.763399 0 203 7 255 
76.14377 55.55703 33.39975 4.693134 3.382593 2.058599 0 203 7 255 
50.87764 -83.14697 22.31702 3.189054 -5.117083 1.398849 0 203 7 255 
67.97202 -38.26833 62.57268 4.167595 -2.32066 3.836543 252 252 252 255 
61.17321 -55.55701 56.31392 3.770421 -3.382593 3.470917 255 255 255 255 
40.87463 83.14697 37.62774 2.562056 5.117083 2.358539 255 255 255 255 
52.02353 70.71069 47.89103 3.229744 4.327111 2.973188 255 255 255 255 
52.02353 -70.71067 47.89105 3.229745 -4.327108 2.973191 255 255 255 255 
61.1732 55.55703 56.3139 3.770421 3.382593 3.470917 255 255 255 255 
40.87464 -83.14696 37.62777 2.562057 -5.117082 2.358541 255 255 255 255 
67.97202 38.26835 62.57265 4.167596 2.320661 3.836542 255 255 255 255 
28.15495 -92.38795 25.91847 1.789622 -5.718699 1.647464 255 255 255 255 
72.15871 19.50905 66.42677 4.410131 1.180035 4.059811 255 255 255 255 
14.35327 -98.07853 13.21314 0.940435 -6.10374 0.8657314 255 255 255 255 
73.57239 6.663177e-06 67.72815 4.491664 4.172325e-07 4.134868 236 236 236 255 
14.35327 98.07853 13.21311 0.9404342 6.103741 0.8657304 255 255 255 255 
72.15871 -19.50902 66.42678 4.410132 -1.180032 4.059812 228 228 228 255 
28.15494 92.38795 25.91845 1.789621 5.718699 1.647463 255 255 255 255 
18.21373 -92.38795 33.65604 1.157725 -5.718699 2.139289 255 255 255 255 
9.285278 -98.07853 17.15771 0.6083772 -6.10374 1.124182 255 255 255 255 
46.68021 19.50905 86.25748 2.852959 1.180034 5.271807 255 255 255 255 
47.59474 9.957306e-06 87.94736 2.905704 1.192093e-06 5.36927 255 255 255 255 
9.285278 98.07853 17.15768 0.6083766 6.10374 1.124182 255 255 255 255 
46.68021 -19.50902 86.25749 2.852959 -1.180032 5.271808 255 255 255 255 
18.21372 92.38795 33.656 1.157724 5.718699 2.139288 255 255 255 255 
43.9718 -38.26833 81.25279 2.69606 -2.320659 4.981884 255 255 255 255 
26.44222 83.14697 48.86093 1.65742 5.117083 3.062645 255 255 255 255 
39.57358 -55.55701 73.12558 2.439125 -3.382593 4.507107 255 255 255 255 
33.65456 70.71069 62.18817 2.089354 4.32711 3.860789 255 255 255 255 
33.65456 -70.71067 62.18819 2.089355 -4.327108 3.860791 255 255 255 255 
39.57358 55.55704 73.12556 2.439124 3.382594 4.507106 255 255 255 255 
26.44223 -83.14696 48.86096 1.657422 -5.117082 3.062647 255 255 255 255 
43.9718 38.26836 81.25277 2.696061 2.320662 4.981883 255 255 255 255 
9.144388 83.14697 54.79928 0.5731776 5.117084 3.434866 255 170 255 255 
11.63859 70.71069 69.74625 0.7225511 4.327111 4.330013 255 170 255 255 
13.68555 -55.55701 82.01295 0.8435107 -3.382593 5.054881 255 170 255 255 
11.63859 -70.71066 69.74628 0.722551 -4.327108 4.330016 221 163 221 255 
13.68554 55.55704 82.01293 0.8435106 3.382594 5.05488 255 170 255 255 
9.144396 -83.14696 54.79932 0.5731793 -5.117081 3.434869 255 170 255 255 
15.20655 38.26836 91.12789 0.9323654 2.320661 5.587361 255 170 255 255 
6.298769 -92.38795 37.74645 0.400371 -5.718699 2.399289 255 170 255 255 
16.14319 19.50905 96.74085 0.9866251 1.180035 5.912521 255 170 255 255 
3.211084 -98.07853 19.24299 0.2103922 -6.103741 1.260811 255 255 255 255 
16.45947 1.169873e-05 98.63612 1.004866 1.192093e-06 6.021828 255 170 255 255 
3.211084 98.07853 19.24295 0.2103919 6.10374 1.26081 255 255 255 255 
16.14319 -19.50902 96.74086 0.9866251 -1.180032 5.912522 255 170 255 255 
6.298764 92.38795 37.74641 0.4003701 5.7187 2.399288 255 170 255 255 
15.20655 -38.26833 91.12791 0.9323653 -2.320658 5.587361 255 170 255 255 
-16.14319 19.50905 96.74085 -0.9866256 1.180035 5.91252 243 167 243 255 
-16.45945 1.169873e-05 98.63612 -1.004865 1.177192e-06 6.021829 255 170 255 255 
-3.21108 98.07853 19.24295 -0.2103918 6.10374 1.26081 255 255 255 255 
-3.21108 -98.07853 19.24299 -0.2103921 -6.10374 1.260811 255 255 255 255 
-16.14319 -19.50902 96.74086 -0.9866253 -1.180031 5.912522 255 170 255 255 
-6.298762 92.38795 37.74641 -0.4003702 5.718699 2.399288 255 170 255 255 
-15.20656 -38.26833 91.12791 -0.9323661 -2.320658 5.587361 255 170 255 255 
-9.144378 83.14697 54.79928 -0.5731775 5.117084 3.434866 234 166 234 255 
-13.68553 -55.55701 82.01295 -0.8435097 -3.382594 5.054881 255 170 255 255 
-11.63859 70.71069 69.74625 -0.7225512 4.327111 4.330013 226 164 226 255 
-11.63859 -70.71066 69.74628 -0.7225512 -4.327108 4.330017 255 170 255 255 
-13.68553 55.55704 82.01293 -0.8435104 3.382594 5.054881 251 169 251 255 
-9.144376 -83.14696 54.79932 -0.573177 -5.117081 3.434869 255 170 255 255 
-15.20655 38.26836 91.12789 -0.9323658 2.320661 5.587361 255 170 255 255 
-6.298758 -92.38795 37.74645 -0.4003698 -5.718699 2.399289 218 163 218 255 
-39.57357 -55.55701 73.12559 -2.439123 -3.382593 4.507107 255 255 255 255 
-33.65455 -70.71067 62.18819 -2.089355 -4.327107 3.860792 230 230 230 255 
-33.65455 70.71069 62.18817 -2.089354 4.32711 3.860789 247 247 247 255 
-39.57357 55.55704 73.12556 -2.439124 3.382594 4.507106 208 208 208 255 
-26.44221 -83.14696 48.86098 -1.657421 -5.117081 3.062647 252 252 252 255 
-43.9718 38.26836 81.25277 -2.696061 2.320661 4.981883 193 193 193 255 
-18.21372 -92.38795 33.65604 -1.157725 -5.718699 2.139288 255 255 255 255 
-46.68021 19.50905 86.25748 -2.85296 1.180035 5.271807 238 238 238 255 
-9.285275 -98.07853 17.15771 -0.608377 -6.103741 1.124182 255 255 255 255 
-47.59473 9.957307e-06 87.94737 -2.905703 1.396984e-06 5.36927 255 255 255 255 
-9.285275 98.07853 17.15768 -0.6083767 6.10374 1.124182 255 255 255 255 
-46.68021 -19.50902 86.25748 -2.85296 -1.180032 5.271809 255 255 255 255 
-18.21372 92.38795 33.656 -1.157725 5.718699 2.139288 255 255 255 255 
-43.97181 -38.26833 81.25279 -2.696061 -2.320658 4.981884 255 255 255 255 
-26.44221 83.14697 48.86093 -1.65742 5.117084 3.062645 247 247 247 255 
-14.35326 -98.07853 13.21314 -0.9404348 -6.10374 0.8657312 255 255 255 255 
-73.57239 6.663179e-06 67.72816 -4.491662 7.450581e-07 4.134867 85 255 255 255 
-72.15871 -19.50902 66.42677 -4.410132 -1.180033 4.059812 85 255 255 255 
-14.35326 98.07853 13.21311 -0.9404345 6.103741 0.8657308 255 255 255 255 
-28.15494 92.38795 25.91844 -1.789622 5.718699 1.647463 85 255 255 255 
-67.97203 -38.26833 62.57267 -4.167596 -2.320658 3.836542 85 255 255 255 
-40.87461 83.14697 37.62774 -2.562056 5.117084 2.358539 92 242 242 255 
-61.17319 -55.55701 56.31392 -3.77042 -3.382594 3.470918 85 255 255 255 
-52.02353 70.71069 47.89103 -3.229744 4.327109 2.973188 112 209 209 255 
-52.02353 -70.71067 47.89105 -3.229745 -4.327108 2.97319 85 255 255 255 
-61.17319 55.55703 56.31389 -3.770421 3.382594 3.470917 96 236 236 255 
-40.87463 -83.14696 37.62778 -2.562057 -5.117081 2.358541 85 255 255 255 
-67.97202 38.26835 62.57265 -4.167595 2.320661 3.836542 85 255 255 255 
-28.15494 -92.38795 25.91848 -1.789621 -5.718699 1.647463 85 255 255 255 
-72.15871 19.50905 66.42677 -4.410131 1.180036 4.059812 85 255 255 255 
-64.75494 -70.71067 28.40417 -4.020142 -4.327108 1.763399 85 255 255 255 
-50.87764 -83.14697 22.31704 -3.189054 -5.117081 1.398851 85 255 255 255 
-76.14376 55.55703 33.39975 -4.693133 3.382594 2.058599 85 255 255 255 
-84.60641 38.26835 37.11182 -5.187507 2.320659 2.275451 109 216 216 255 
-35.04514 -92.38795 15.37225 -2.227585 -5.7187 0.9771096 111 213 213 255 
-89.81768 19.50904 39.39769 -5.489398 1.180035 2.407872 85 255 255 255 
-17.86586 -98.07853 7.836718 -1.170582 -6.10374 0.513465 255 255 255 255 
-91.57732 2.173311e-06 40.16955 -5.590882 3.427267e-07 2.452388 85 255 255 255 
-17.86586 98.07853 7.836686 -1.170583 6.10374 0.5134614 255 255 255 255 
-89.81768 -19.50903 39.3977 -5.489398 -1.180033 2.407873 85 255 255 255 
-35.04513 92.38795 15.37221 -2.227585 5.718699 0.9771094 85 255 255 255 
-84.60643 -38.26833 37.11182 -5.187507 -2.320658 2.275451 85 255 255 255 
-50.87762 83.14697 22.317 -3.189054 5.117083 1.398848 85 255 255 255 
-76.14376 -55.55701 33.39978 -4.693132 -3.382594 2.0586 85 255 255 255 
-64.75494 70.71068 28.40414 -4.020141 4.32711 1.763396 85 255 255 255 
-19.44241 98.07852 1.611038 -1.273879 6.103741 0.1055539 255 255 255 255 
-38.13764 92.38795 3.16017 -2.424156 5.718699 0.2008695 12 38 255 255 
-97.74352 -19.50903 8.099271 -5.973803 -1.180033 0.4950039 0 0 255 255 
-92.0724 -38.26834 7.629342 -5.645272 -2.320658 0.4677804 0 0 255 255 
-55.36726 83.14696 4.587861 -3.470468 5.117083 0.287571 0 0 255 255 
-82.86297 -55.55702 6.866246 -5.107272 -3.382594 0.4232021 0 0 255 255 
-70.46915 70.71068 5.839234 -4.374892 4.32711 0.3625134 0 0 255 255 
-70.46915 -70.71068 5.839257 -4.374894 -4.327108 0.3625149 0 0 255 255 
-82.86296 55.55703 6.866216 -5.107273 3.382593 0.4231999 0 0 255 255 
-55.36728 -83.14697 4.587895 -3.470468 -5.117081 0.2875724 0 0 255 255 
-92.07239 38.26834 7.629335 -5.645272 2.320659 0.4677801 8 8 248 255 
-38.13765 -92.38795 3.160204 -2.424155 -5.7187 0.2008726 54 54 217 255 
-97.74352 19.50904 8.099264 -5.973802 1.180035 0.4950035 0 0 255 255 
-19.44241 -98.07853 1.61107 -1.273878 -6.10374 0.1055571 255 255 255 255 
-99.65844 -3.025749e-06 8.257944 -6.084241 1.490116e-08 0.5041553 0 0 255 255 
-80.60268 55.55702 -20.41137 -4.967959 3.382593 -1.258059 0 0 255 255 
-89.5609 38.26834 -22.6799 -5.491283 2.320659 -1.390582 0 0 255 255 
-53.85701 -83.14697 -13.63841 -3.375804 -5.117082 -0.8548674 0 0 255 255 
-37.09735 -92.38795 -9.394298 -2.35803 -5.7187 -0.597132 145 145 153 255 
-95.07733 19.50903 -24.07684 -5.810853 1.180035 -1.471507 0 0 255 255 
-18.91207 -98.07853 -4.789159 -1.239129 -6.103741 -0.3137901 255 255 255 255 
-96.94003 -8.370603e-06 -24.54854 -5.918279 -3.129244e-07 -1.498711 0 0 255 255 
-18.91207 98.07852 -4.789191 -1.23913 6.10374 -0.3137909 255 255 255 255 
-95.07733 -19.50904 -24.07684 -5.810853 -1.180034 -1.471507 0 0 255 255 
-37.09734 92.38795 -9.394328 -2.358031 5.718699 -0.5971353 0 0 255 255 
-89.56091 -38.26834 -22.6799 -5.491283 -2.320659 -1.390582 0 0 255 255 
-53.85699 83.14696 -13.63844 -3.375802 5.117083 -0.8548688 0 0 255 255 
-80.60268 -55.55702 -20.41135 -4.96796 -3.382594 -1.258057 4 4 251 255 
-68.54694 70.71067 -17.35845 -4.255557 4.327109 -1.077654 0 0 255 255 
-68.54694 -70.71068 -17.35842 -4.255558 -4.327108 -1.077653 36 36 229 255 
-82.10804 -19.50904 -53.64384 -5.018207 -1.180034 -3.278558 255 85 0 255 
-77.34409 -38.26835 -50.53142 -4.742229 -2.320658 -3.098253 255 85 0 255 
-32.03698 92.38795 -20.93081 -2.036377 5.718699 -1.330431 255 85 0 255 
-46.51048 83.14696 -30.38681 -2.915316 5.117082 -1.904671 255 85 0 255 
-69.60786 -55.55703 -45.47705 -4.290291 -3.382594 -2.802985 255 85 0 255 
-59.1966 70.71067 -38.67507 -3.675066 4.327109 -2.401041 255 85 0 255 
-59.1966 -70.71069 -38.67505 -3.675067 -4.327109 -2.40104 255 85 0 255 
-69.60784 55.55702 -45.47707 -4.290291 3.382594 -2.802987 255 85 0 255 
-46.51049 -83.14697 -30.38679 -2.915317 -5.117081 -1.90467 255 85 0 255 
-77.34409 38.26833 -50.53142 -4.742229 2.320658 -3.098253 255 85 0 255 
-32.03699 -92.38795 -20.93078 -2.036375 -5.7187 -1.33043 208 199 66 255 
-82.10804 19.50903 -53.64385 -5.018207 1.180034 -3.278559 255 85 0 255 
-16.33231 -98.07853 -10.67041 -1.070105 -6.103741 -0.6991308 255 254 245 255 
-83.71664 -1.328205e-05 -54.6948 -5.11098 -5.215406e-07 -3.33917 255 85 0 255 
-16.33231 98.07852 -10.67044 -1.070104 6.10374 -0.6991334 255 255 255 255 
-34.12385 -83.14697 -43.84228 -2.138911 -5.117082 -2.748072 255 85 0 255 
-23.50492 -92.38795 -30.19908 -1.49405 -5.7187 -1.919554 203 194 73 255 
-56.74585 38.26833 -72.90707 -3.479281 2.320657 -4.470181 232 98 31 255 
-60.24107 19.50902 -77.39771 -3.681761 1.180034 -4.730326 255 85 0 255 
-11.9827 -98.07854 -15.39535 -0.7851163 -6.10374 -1.008711 255 255 255 255 
-61.42128 -1.722787e-05 -78.91403 -3.749826 -9.834766e-07 -4.817776 238 95 24 255 
-11.9827 98.07852 -15.39538 -0.7851142 6.10374 -1.008714 255 255 255 255 
-60.24107 -19.50904 -77.39771 -3.681761 -1.180034 -4.730326 253 85 1 255 
-23.50491 92.38795 -30.19911 -1.494051 5.718699 -1.919556 255 85 0 255 
-56.74585 -38.26835 -72.90707 -3.47928 -2.320657 -4.470181 255 85 0 255 
-34.12383 83.14695 -43.84229 -2.138911 5.117083 -2.748073 255 85 0 255 
-51.06993 -55.55703 -65.61462 -3.147703 -3.382595 -4.044167 255 85 0 255 
-43.43139 70.71067 -55.80065 -2.696324 4.327108 -3.464238 255 85 0 255 
-43.43139 -70.71069 -55.80063 -2.696324 -4.32711 -3.464237 255 85 0 255 
-51.06992 55.55701 -65.61462 -3.147703 3.382593 -4.044169 240 94 21 255 
-12.42571 92.38795 -36.19487 -0.7898201 5.718699 -2.300667 150 150 150 255 
-18.03934 83.14695 -52.54679 -1.130722 5.117082 -3.293678 227 214 39 255 
-29.99831 -38.26835 -87.38211 -1.839298 -2.320658 -5.357695 255 238 0 255 
-26.99779 -55.55703 -78.64181 -1.664013 -3.382595 -4.8471 255 238 0 255 
-22.95972 70.71066 -66.87936 -1.425394 4.327109 -4.15203 240 225 20 255 
-22.95972 -70.71069 -66.87934 -1.425395 -4.327109 -4.152031 255 238 0 255 
-26.99778 55.55701 -78.64182 -1.664013 3.382593 -4.847102 255 238 0 255 
-18.03935 -83.14697 -52.54678 -1.130722 -5.117082 -3.293677 255 238 0 255 
-29.99832 38.26833 -87.38211 -1.839299 2.320657 -5.357695 255 238 0 255 
-12.42572 -92.38795 -36.19485 -0.7898192 -5.718701 -2.300664 255 238 0 255 
-31.84604 19.50902 -92.76434 -1.946338 1.180034 -5.669489 255 238 0 255 
-6.334576 -98.07854 -18.45196 -0.415045 -6.10374 -1.208984 255 255 255 255 
-32.46995 -1.978045e-05 -94.58171 -1.982321 -1.356006e-06 -5.774302 255 238 0 255 
-6.334576 98.07852 -18.45199 -0.4150453 6.10374 -1.208986 255 255 255 255 
-31.84604 -19.50905 -92.76433 -1.946338 -1.180034 -5.669489 255 238 0 255 
3 0 1 2 
3 0 2 3 
3 4 5 6 
3 4 6 7 
3 8 0 3 
3 8 3 9 
3 10 11 12 
3 13 4 7 
3 14 8 9 
3 14 9 15 
3 16 10 12 
3 16 12 17 
3 18 14 15 
3 18 15 19 
3 20 16 17 
3 20 17 21 
3 22 18 19 
3 22 19 23 
3 24 20 21 
3 24 21 25 
3 26 22 23 
3 26 23 27 
3 28 24 25 
3 28 25 29 
3 30 26 27 
3 30 27 31 
3 1 28 29 
3 1 29 2 
3 5 30 31 
3 5 31 6 
3 31 27 32 
3 31 32 33 
3 2 29 34 
3 2 34 35 
3 6 31 33 
3 6 33 36 
3 3 2 35 
3 3 35 37 
3 7 6 36 
3 7 36 38 
3 9 3 37 
3 9 37 39 
3 12 11 40 
3 13 7 38 
3 15 9 39 
3 15 39 41 
3 17 12 40 
3 17 40 42 
3 19 15 41 
3 19 41 43 
3 21 17 42 
3 21 42 44 
3 23 19 43 
3 23 43 45 
3 25 21 44 
3 25 44 46 
3 27 23 45 
3 27 45 32 
3 29 25 46 
3 29 46 34 
3 43 41 47 
3 43 47 48 
3 44 42 49 
3 44 49 50 
3 45 43 48 
3 45 48 51 
3 46 44 50 
3 46 50 52 
3 32 45 51 
3 32 51 53 
3 34 46 52 
3 34 52 54 
3 33 32 53 
3 33 53 55 
3 35 34 54 
3 35 54 56 
3 36 33 55 
3 36 55 57 
3 37 35 56 
3 37 56 58 
3 38 36 57 
3 38 57 59 
3 39 37 58 
3 39 58 60 
3 40 11 61 
3 13 38 59 
3 41 39 60 
3 41 60 47 
3 42 40 61 
3 42 61 49 
3 57 55 62 
3 57 62 63 
3 58 56 64 
3 58 64 65 
3 59 57 63 
3 59 63 66 
3 60 58 65 
3 60 65 67 
3 61 11 68 
3 13 59 66 
3 47 60 67 
3 47 67 69 
3 49 61 68 
3 49 68 70 
3 48 47 69 
3 48 69 71 
3 50 49 70 
3 50 70 72 
3 51 48 71 
3 51 71 73 
3 52 50 72 
3 52 72 74 
3 53 51 73 
3 53 73 75 
3 54 52 74 
3 54 74 76 
3 55 53 75 
3 55 75 62 
3 56 54 76 
3 56 76 64 
3 72 70 77 
3 72 77 78 
3 73 71 79 
3 73 79 80 
3 74 72 78 
3 74 78 81 
3 75 73 80 
3 75 80 82 
3 76 74 81 
3 76 81 83 
3 62 75 82 
3 62 82 84 
3 64 76 83 
3 64 83 85 
3 63 62 84 
3 63 84 86 
3 65 64 85 
3 65 85 87 
3 66 63 86 
3 66 86 88 
3 67 65 87 
3 67 87 89 
3 68 11 90 
3 13 66 88 
3 69 67 89 
3 69 89 91 
3 70 68 90 
3 70 90 77 
3 71 69 91 
3 71 91 79 
3 87 85 92 
3 87 92 93 
3 88 86 94 
3 88 94 95 
3 89 87 93 
3 89 93 96 
3 90 11 97 
3 13 88 95 
3 91 89 96 
3 91 96 98 
3 77 90 97 
3 77 97 99 
3 79 91 98 
3 79 98 100 
3 78 77 99 
3 78 99 101 
3 80 79 100 
3 80 100 102 
3 81 78 101 
3 81 101 103 
3 82 80 102 
3 82 102 104 
3 83 81 103 
3 83 103 105 
3 84 82 104 
3 84 104 106 
3 85 83 105 
3 85 105 92 
3 86 84 106 
3 86 106 94 
3 102 100 107 
3 102 107 108 
3 103 101 109 
3 103 109 110 
3 104 102 108 
3 104 108 111 
3 105 103 110 
3 105 110 112 
3 106 104 111 
3 106 111 113 
3 92 105 112 
3 92 112 114 
3 94 106 113 
3 94 113 115 
3 93 92 114 
3 93 114 116 
3 95 94 115 
3 95 115 117 
3 96 93 116 
3 96 116 118 
3 97 11 119 
3 13 95 117 
3 98 96 118 
3 98 118 120 
3 99 97 119 
3 99 119 121 
3 100 98 120 
3 100 120 107 
3 101 99 121 
3 101 121 109 
3 117 115 122 
3 117 122 123 
3 118 116 124 
3 118 124 125 
3 119 11 126 
3 13 117 123 
3 120 118 125 
3 120 125 127 
3 121 119 126 
3 121 126 128 
3 107 120 127 
3 107 127 129 
3 109 121 128 
3 109 128 130 
3 108 107 129 
3 108 129 131 
3 110 109 130 
3 110 130 132 
3 111 108 131 
3 111 131 133 
3 112 110 132 
3 112 132 134 
3 113 111 133 
3 113 133 135 
3 114 112 134 
3 114 134 136 
3 115 113 135 
3 115 135 122 
3 116 114 136 
3 116 136 124 
3 132 130 137 
3 132 137 138 
3 133 131 139 
3 133 139 140 
3 134 132 138 
3 134 138 141 
3 135 133 140 
3 135 140 142 
3 136 134 141 
3 136 141 143 
3 122 135 142 
3 122 142 144 
3 124 136 143 
3 124 143 145 
3 123 122 144 
3 123 144 146 
3 125 124 145 
3 125 145 147 
3 126 11 148 
3 13 123 146 
3 127 125 147 
3 127 147 149 
3 128 126 148 
3 128 148 150 
3 129 127 149 
3 129 149 151 
3 130 128 150 
3 130 150 137 
3 131 129 151 
3 131 151 139 
3 147 145 152 
3 147 152 153 
3 148 11 154 
3 13 146 155 
3 149 147 153 
3 149 153 156 
3 150 148 154 
3 150 154 157 
3 151 149 156 
3 151 156 158 
3 137 150 157 
3 137 157 159 
3 139 151 158 
3 139 158 160 
3 138 137 159 
3 138 159 161 
3 140 139 160 
3 140 160 162 
3 141 138 161 
3 141 161 163 
3 142 140 162 
3 142 162 164 
3 143 141 163 
3 143 163 165 
3 144 142 164 
3 144 164 166 
3 145 143 165 
3 145 165 152 
3 146 144 166 
3 146 166 155 
3 162 160 167 
3 162 167 168 
3 163 161 169 
3 163 169 170 
3 164 162 168 
3 164 168 171 
3 165 163 170 
3 165 170 172 
3 166 164 171 
3 166 171 173 
3 152 165 172 
3 152 172 174 
3 155 166 173 
3 155 173 175 
3 153 152 174 
3 153 174 176 
3 154 11 177 
3 13 155 175 
3 156 153 176 
3 156 176 178 
3 157 154 177 
3 157 177 179 
3 158 156 178 
3 158 178 180 
3 159 157 179 
3 159 179 181 
3 160 158 180 
3 160 180 167 
3 161 159 181 
3 161 181 169 
3 13 175 182 
3 178 176 183 
3 178 183 184 
3 179 177 185 
3 179 185 186 
3 180 178 184 
3 180 184 187 
3 181 179 186 
3 181 186 188 
3 167 180 187 
3 167 187 189 
3 169 181 188 
3 169 188 190 
3 168 167 189 
3 168 189 191 
3 170 169 190 
3 170 190 192 
3 171 168 191 
3 171 191 193 
3 172 170 192 
3 172 192 194 
3 173 171 193 
3 173 193 195 
3 174 172 194 
3 174 194 196 
3 175 173 195 
3 175 195 182 
3 176 174 196 
3 176 196 183 
3 177 11 185 
3 193 191 197 
3 193 197 198 
3 194 192 199 
3 194 199 200 
3 195 193 198 
3 195 198 201 
3 196 194 200 
3 196 200 202 
3 182 195 201 
3 182 201 203 
3 183 196 202 
3 183 202 204 
3 185 11 205 
3 13 182 203 
3 184 183 204 
3 184 204 206 
3 186 185 205 
3 186 205 207 
3 187 184 206 
3 187 206 208 
3 188 186 207 
3 188 207 209 
3 189 187 208 
3 189 208 210 
3 190 188 209 
3 190 209 211 
3 191 189 210 
3 191 210 197 
3 192 190 211 
3 192 211 199 
3 207 205 212 
3 207 212 213 
3 208 206 214 
3 208 214 215 
3 209 207 213 
3 209 213 216 
3 210 208 215 
3 210 215 217 
3 211 209 216 
3 211 216 218 
3 197 210 217 
3 197 217 219 
3 199 211 218 
3 199 218 220 
3 198 197 219 
3 198 219 221 
3 200 199 220 
3 200 220 222 
3 201 198 221 
3 201 221 223 
3 202 200 222 
3 202 222 224 
3 203 201 223 
3 203 223 225 
3 204 202 224 
3 204 224 226 
3 205 11 212 
3 13 203 225 
3 206 204 226 
3 206 226 214 
3 222 220 227 
3 222 227 228 
3 223 221 229 
3 223 229 230 
3 224 222 228 
3 224 228 231 
3 225 223 230 
3 225 230 232 
3 226 224 231 
3 226 231 233 
3 212 11 234 
3 13 225 232 
3 214 226 233 
3 214 233 235 
3 213 212 234 
3 213 234 236 
3 215 214 235 
3 215 235 237 
3 216 213 236 
3 216 236 238 
3 217 215 237 
3 217 237 239 
3 218 216 238 
3 218 238 240 
3 219 217 239 
3 219 239 241 
3 220 218 240 
3 220 240 227 
3 221 219 241 
3 221 241 229 
3 237 235 242 
3 237 242 243 
3 238 236 244 
3 238 244 245 
3 239 237 243 
3 239 243 246 
3 240 238 245 
3 240 245 247 
3 241 239 246 
3 241 246 248 
3 227 240 247 
3 227 247 249 
3 229 241 248 
3 229 248 250 
3 228 227 249 
3 228 249 251 
3 230 229 250 
3 230 250 252 
3 231 228 251 
3 231 251 253 
3 232 230 252 
3 232 252 254 
3 233 231 253 
3 233 253 255 
3 234 11 256 
3 13 232 254 
3 235 233 255 
3 235 255 242 
3 236 234 256 
3 236 256 244 
3 252 250 257 
3 252 257 258 
3 253 251 259 
3 253 259 260 
3 254 252 258 
3 254 258 261 
3 255 253 260 
3 255 260 262 
3 256 11 263 
3 13 254 261 
3 242 255 262 
3 242 262 264 
3 244 256 263 
3 244 263 265 
3 243 242 264 
3 243 264 266 
3 245 244 265 
3 245 265 267 
3 246 243 266 
3 246 266 268 
3 247 245 267 
3 247 267 269 
3 248 246 268 
3 248 268 270 
3 249 247 269 
3 249 269 271 
3 250 248 270 
3 250 270 257 
3 251 249 271 
3 251 271 259 
3 267 265 272 
3 267 272 273 
3 268 266 274 
3 268 274 275 
3 269 267 273 
3 269 273 276 
3 270 268 275 
3 270 275 277 
3 271 269 276 
3 271 276 278 
3 257 270 277 
3 257 277 279 
3 259 271 278 
3 259 278 280 
3 258 257 279 
3 258 279 281 
3 260 259 280 
3 260 280 282 
3 261 258 281 
3 261 281 283 
3 262 260 282 
3 262 282 284 
3 263 11 285 
3 13 261 283 
3 264 262 284 
3 264 284 286 
3 265 263 285 
3 265 285 272 
3 266 264 286 
3 266 286 274 
3 282 280 1 
3 282 1 0 
3 283 281 5 
3 283 5 4 
3 284 282 0 
3 284 0 8 
3 285 11 10 
3 13 283 4 
3 286 284 8 
3 286 8 14 
3 272 285 10 
3 272 10 16 
3 274 286 14 
3 274 14 18 
3 273 272 16 
3 273 16 20 
3 275 274 18 
3 275 18 22 
3 276 273 20 
3 276 20 24 
3 277 275 22 
3 277 22 26 
3 278 276 24 
3 278 24 28 
3 279 277 26 
3 279 26 30 
3 280 278 28 
3 280 28 1 
3 281 279 30 
3 281 30 5 
